<?xml version="1.0" standalone="no"?>
<!DOCTYPE svg PUBLIC "-//W3C//DTD SVG 20010904//EN"
 "http://www.w3.org/TR/2001/REC-SVG-20010904/DTD/svg10.dtd">
<svg version="1.0" xmlns="http://www.w3.org/2000/svg"
 width="1024.000000pt" height="559.000000pt" viewBox="0 0 1024.000000 559.000000"
 preserveAspectRatio="xMidYMid meet">

<g transform="translate(0.000000,559.000000) scale(0.100000,-0.100000)"
fill="#000000" stroke="none">
<path d="M6765 4685 c-104 -74 -231 -163 -282 -199 -50 -37 -95 -66 -100 -66
-4 0 -27 28 -51 62 -41 60 -41 63 -22 73 11 6 18 14 14 17 -3 4 2 5 13 2 10
-3 36 2 58 10 37 14 37 15 9 12 -22 -3 -36 2 -48 15 -9 10 -20 19 -24 19 -16
0 -54 -48 -47 -59 3 -6 4 -11 2 -11 -3 0 -29 30 -57 66 -66 84 -115 108 -206
102 -50 -3 -72 -10 -105 -33 -63 -45 -80 -87 -89 -215 -9 -132 -27 -174 -90
-207 -52 -28 -118 -30 -228 -7 -108 22 -108 22 -115 101 -12 124 -69 201 -211
287 -30 18 -76 39 -101 46 -41 11 -51 11 -83 -4 -20 -10 -43 -27 -52 -39 -17
-26 -108 -227 -152 -340 -21 -55 -43 -91 -72 -120 -53 -52 -100 -142 -87 -165
7 -12 2 -21 -16 -36 -37 -28 -83 -105 -83 -137 0 -19 -12 -36 -45 -64 -47 -38
-85 -99 -85 -134 0 -11 -12 -28 -26 -38 -28 -18 -91 -98 -118 -150 -10 -21
-24 -33 -37 -33 -29 0 -85 -59 -97 -102 -6 -20 -18 -46 -29 -57 -45 -49 -271
-221 -408 -311 -204 -134 -225 -150 -242 -185 -9 -16 -31 -56 -51 -87 -31 -52
-34 -63 -28 -105 3 -27 15 -76 26 -111 61 -195 199 -258 619 -283 97 -5 181
-11 188 -12 15 -3 -8 -54 -40 -88 l-22 -24 -3 35 c-5 49 -19 58 -27 18 -4 -18
-23 -65 -41 -105 -31 -65 -34 -81 -34 -160 0 -85 13 -301 26 -448 6 -62 5 -68
-9 -55 -15 15 -172 244 -263 385 -29 44 -64 95 -78 114 -14 19 -26 40 -26 46
0 7 -9 22 -20 35 -11 13 -20 28 -20 35 0 7 -9 22 -20 35 -13 15 -20 18 -20 9
0 -11 -2 -12 -9 -1 -4 8 -10 13 -12 12 -2 -1 -23 6 -47 16 -29 13 -41 23 -37
34 4 12 3 12 -7 -1 -7 -9 -22 -15 -33 -13 -24 4 -33 -2 -66 -42 -23 -29 -25
-35 -17 -95 12 -87 14 -180 4 -204 -7 -19 -7 -19 7 -2 8 9 18 17 22 17 4 0 4
-44 1 -97 -5 -73 -3 -109 8 -143 10 -32 15 -38 15 -21 1 35 10 22 16 -25 3
-21 8 -56 11 -76 3 -21 3 -38 0 -38 -3 0 -24 18 -48 39 -47 44 -231 148 -461
262 -171 85 -230 128 -225 167 6 50 98 55 120 6 8 -18 14 -21 20 -12 4 8 8 -4
8 -29 0 -23 5 -45 10 -48 6 -4 10 13 10 44 0 59 11 64 69 29 45 -28 69 -55
124 -136 29 -44 47 -62 59 -59 12 4 18 -4 23 -30 8 -43 28 -38 36 10 4 23 17
45 37 62 23 19 32 35 32 56 0 16 4 29 9 29 4 0 8 15 7 33 -1 21 3 31 12 30 19
-4 15 10 -31 99 -55 107 -88 181 -132 298 -39 102 -51 122 -60 98 -6 -14 13
-81 40 -143 30 -68 87 -201 92 -215 4 -10 3 -12 -5 -5 -17 16 -84 143 -122
230 -18 44 -35 81 -36 83 -1 2 -29 -18 -63 -43 -65 -50 -73 -68 -45 -111 9
-13 14 -27 11 -30 -3 -3 -36 3 -74 14 -142 41 -200 43 -292 11 -87 -30 -161
-114 -187 -210 -27 -102 -13 -162 54 -230 47 -47 166 -119 198 -119 9 0 -26
30 -77 67 -78 57 -99 77 -121 122 -37 73 -37 128 1 206 34 72 68 104 139 134
62 26 159 41 148 23 -4 -7 -15 -12 -25 -12 -41 0 -115 -35 -155 -74 -83 -79
-103 -177 -57 -268 28 -54 119 -146 171 -173 19 -10 37 -21 40 -25 3 -4 49
-28 103 -53 103 -49 107 -54 125 -137 l10 -45 1 53 c1 65 11 66 102 14 36 -20
81 -45 100 -55 68 -35 110 -79 114 -120 2 -20 -1 -37 -6 -37 -6 0 -7 -4 -4
-10 3 -5 2 -10 -4 -10 -5 0 -17 -7 -26 -17 -13 -12 -34 -16 -88 -16 -92 1
-173 30 -242 85 -48 40 -64 62 -132 189 -17 33 -35 51 -61 62 -51 21 -110 28
-115 14 -3 -9 -8 -8 -21 2 -14 12 -16 12 -10 -4 6 -14 4 -16 -6 -10 -10 6 -12
4 -7 -10 4 -9 2 -23 -4 -31 -9 -11 -17 -57 -23 -132 0 -10 5 -16 14 -15 43 7
73 -147 74 -379 1 -106 5 -171 12 -178 25 -25 33 17 36 170 2 91 7 155 13 156
6 2 25 -17 43 -41 61 -83 220 -159 352 -168 66 -4 60 -1 -45 22 -112 26 -248
110 -281 173 -14 28 -14 29 4 19 10 -5 24 -17 31 -25 26 -31 149 -95 213 -110
38 -10 99 -18 138 -19 64 -2 70 -4 79 -27 5 -14 9 -62 9 -106 -1 -85 7 -117
23 -93 5 8 9 41 9 74 0 33 5 78 12 100 6 22 12 45 12 50 1 6 28 24 62 40 83
41 97 53 137 114 19 29 37 49 40 44 2 -4 7 -42 11 -83 4 -41 12 -90 17 -107
11 -35 29 -44 29 -15 1 9 9 35 20 57 11 22 19 45 20 51 0 7 6 11 14 10 7 0 28
16 45 38 28 35 38 70 32 116 0 8 -8 96 -16 195 -8 99 -17 195 -21 213 -11 53
10 38 64 -45 55 -85 144 -215 215 -315 54 -76 164 -257 169 -278 2 -8 12 -22
24 -32 31 -25 44 -109 44 -278 0 -81 3 -149 6 -153 3 -3 11 -3 18 -1 9 4 13
48 13 164 1 93 6 175 13 197 12 38 73 106 85 95 3 -4 3 1 0 9 -3 9 3 23 15 34
11 10 20 24 20 32 0 7 9 13 21 13 15 0 19 -5 15 -15 -3 -8 -1 -15 3 -15 5 0
27 -23 48 -52 l38 -52 5 -141 c4 -116 8 -140 20 -140 13 0 15 24 15 155 0 119
3 161 15 180 14 25 15 24 23 -30 5 -30 11 -62 13 -70 8 -25 24 10 24 54 0 60
20 115 44 121 12 3 41 14 66 24 63 26 238 79 280 85 19 3 53 8 75 11 22 3 48
8 58 11 9 3 17 1 17 -5 0 -5 -10 -12 -22 -16 -85 -22 -111 -30 -178 -53 -91
-30 -189 -79 -250 -123 -58 -42 -36 -49 32 -11 92 53 352 152 397 152 12 0 22
-4 22 -10 1 -5 2 -16 3 -22 1 -7 -4 -35 -11 -63 -7 -27 -13 -52 -13 -54 0 -2
19 20 42 49 37 47 42 50 52 33 6 -10 12 -85 14 -168 4 -172 5 -183 28 -165 10
9 13 22 9 42 -4 15 -3 73 0 127 7 87 10 100 29 109 11 6 16 11 9 11 -16 1 -4
39 17 54 9 7 23 23 29 36 9 15 16 20 20 12 19 -30 78 65 106 171 l17 66 55 21
c30 12 62 21 71 21 10 1 31 7 47 15 29 14 27 15 -35 10 -36 -3 -86 -11 -112
-17 -44 -11 -48 -14 -72 -72 -14 -34 -26 -69 -26 -78 0 -9 -4 -20 -10 -23 -5
-3 -10 -3 -10 1 0 11 51 178 56 183 6 7 258 48 266 44 10 -5 52 -144 54 -178
2 -47 22 -142 33 -163 6 -11 35 -34 66 -51 52 -30 55 -33 57 -74 1 -23 0 -61
-1 -84 -2 -32 2 -45 14 -49 25 -10 30 2 27 82 -1 41 1 74 4 74 13 0 148 -84
179 -112 33 -29 35 -29 35 -8 0 12 -5 30 -11 42 -12 22 -3 40 10 19 8 -12 24
-79 36 -153 3 -21 11 -38 17 -38 7 0 9 29 4 94 -9 116 5 160 53 171 33 7 34
10 31 65 -1 34 -37 250 -46 281 -8 28 100 51 242 51 67 0 127 -3 133 -7 26
-15 4 -152 -49 -312 -6 -17 -10 -35 -9 -40 5 -28 -3 -44 -18 -41 -23 4 -19 31
17 123 29 73 53 182 27 120 -7 -16 -34 -74 -60 -128 -26 -54 -50 -116 -53
-138 -6 -37 -5 -39 19 -39 14 0 29 4 32 10 3 5 19 10 35 10 40 0 60 -40 60
-119 0 -33 5 -63 10 -66 6 -3 10 2 11 12 1 24 8 72 15 102 4 19 8 21 17 12 8
-8 12 -66 12 -191 0 -184 5 -210 39 -197 14 5 16 31 16 172 0 159 1 166 18
149 16 -17 17 -16 20 27 5 79 31 185 65 265 18 44 46 123 62 176 26 91 27 102
16 153 -10 44 -22 65 -61 105 -54 55 -40 52 -230 51 l-95 -1 78 71 c66 61 94
99 71 99 -3 0 -53 -45 -111 -100 -58 -55 -112 -100 -120 -100 -8 0 9 21 38 48
84 75 177 172 227 237 25 33 50 61 54 63 4 2 4 10 1 18 -3 8 -1 14 5 14 23 0
31 -85 10 -93 -8 -3 -6 -6 5 -6 9 -1 17 5 17 12 0 8 3 7 9 -3 6 -8 7 -18 4
-24 -3 -5 -2 -6 4 -3 11 7 43 -27 43 -45 0 -6 3 -9 6 -5 8 7 67 -63 121 -142
21 -31 62 -89 91 -129 57 -77 58 -89 22 -142 -15 -22 -41 -66 -130 -225 -78
-139 -110 -215 -110 -261 0 -30 6 -54 17 -66 15 -17 15 -18 -1 -18 -9 0 -15
-4 -11 -9 3 -5 21 -7 40 -4 29 5 36 2 43 -16 4 -13 12 -21 17 -19 5 2 11 -19
13 -47 4 -58 20 -96 23 -55 1 14 3 32 4 40 1 8 3 25 4 38 0 12 7 22 15 22 8 0
17 7 20 16 4 10 14 14 26 11 11 -3 18 -2 15 3 -3 4 2 21 11 36 13 24 15 25 11
7 -6 -26 14 -31 32 -10 6 8 24 12 43 10 31 -4 32 -3 14 11 -10 8 -23 17 -27
18 -22 7 46 148 165 347 47 78 86 150 86 159 -1 45 -113 -125 -215 -328 -27
-52 -50 -89 -52 -83 -3 7 1 21 7 33 6 11 8 24 5 29 -3 5 2 17 11 25 8 9 13 16
10 16 -13 0 115 243 196 372 26 43 48 80 48 83 0 15 48 74 54 67 4 -4 6 -2 4
3 -4 14 23 75 33 75 5 0 9 -6 9 -12 0 -7 7 -2 16 11 11 14 20 19 26 13 5 -5
12 -71 15 -146 4 -93 10 -135 17 -133 10 3 23 137 27 282 0 28 9 67 19 87 10
20 14 38 9 40 -5 2 -3 12 6 23 14 18 87 133 142 223 28 46 32 132 7 132 -13 0
-15 8 -9 43 3 23 9 50 11 60 3 10 -1 20 -11 23 -16 6 -291 -80 -310 -97 -14
-14 -37 -11 -29 4 5 8 4 9 -4 2 -6 -5 -29 -62 -53 -125 -46 -127 -138 -320
-173 -363 l-23 -28 -35 53 c-61 92 -97 164 -89 176 5 8 14 -2 27 -30 10 -23
32 -56 48 -73 16 -16 26 -25 23 -20 -2 6 -17 42 -32 80 -42 107 -114 255 -125
255 -16 0 -12 -26 15 -86 16 -36 22 -61 16 -71 -6 -11 -13 -5 -29 29 -12 23
-27 50 -35 59 -16 21 -81 49 -113 49 -16 0 -31 12 -48 36 -20 30 -25 33 -30
17 -3 -10 -1 -36 4 -58 5 -22 7 -41 4 -44 -2 -2 -4 0 -4 6 0 5 -6 10 -14 10
-10 0 -13 -10 -11 -33 1 -18 -2 -38 -7 -46 -7 -9 -8 -1 -5 24 4 23 1 38 -6 41
-9 3 -8 8 2 21 12 14 12 16 -3 10 -9 -4 -16 -3 -15 2 1 5 -3 22 -9 37 -7 16
-12 34 -12 42 0 8 -4 16 -9 19 -4 3 -6 17 -3 32 9 50 -25 21 -117 -100 -50
-66 -149 -181 -221 -257 -71 -76 -130 -141 -130 -145 0 -4 8 3 19 14 10 12 22
22 27 22 5 0 68 55 139 122 72 68 125 116 119 108 -86 -119 -321 -377 -332
-365 -8 8 -3 265 7 355 6 59 5 78 -6 89 -18 17 -12 35 13 40 10 2 23 8 27 15
5 6 6 -20 3 -59 -16 -187 -19 -275 -9 -275 6 0 14 30 18 68 4 37 13 110 21
162 23 157 20 168 -47 150 -115 -31 -385 -177 -365 -198 3 -2 28 5 55 17 27
11 51 21 53 21 2 0 4 -83 4 -185 l1 -185 -32 0 c-18 0 -45 -3 -61 -6 -29 -5
-30 -4 -111 163 -83 172 -122 260 -153 348 -10 28 -21 57 -25 66 -6 15 12 17
172 23 223 8 667 43 753 59 163 30 -2 63 -448 87 -270 15 -952 29 -1152 24
-191 -5 -190 -6 -60 46 59 24 140 62 378 176 84 41 155 74 158 74 2 0 23 9 47
19 124 56 195 85 317 132 146 55 172 67 181 82 4 5 20 9 35 9 16 0 49 8 74 19
25 10 99 39 165 65 183 70 318 139 385 195 73 61 157 161 189 225 22 44 23 51
13 125 -13 93 -25 118 -85 185 -25 28 -55 68 -66 90 -12 23 -33 51 -46 64 -14
13 -25 27 -25 32 0 5 -14 44 -30 88 l-31 79 -33 -36 -33 -36 24 -76 c23 -71
23 -76 7 -88 -10 -7 -21 -13 -25 -13 -9 0 -25 49 -33 101 l-6 35 -120 -120
c-65 -66 -121 -118 -124 -116 -5 6 31 186 41 205 5 7 40 39 78 70 39 32 71 59
73 60 2 2 -6 22 -18 45 -18 36 -23 40 -37 29 -49 -41 -374 -391 -371 -400 2
-6 47 -25 101 -42 71 -24 94 -35 88 -45 -4 -8 -15 -10 -26 -6 -14 6 -16 4 -10
-6 9 -14 -6 -8 -34 14 -8 6 -26 11 -40 12 -14 0 -42 4 -62 8 l-37 8 -18 -76
c-15 -67 -22 -78 -47 -91 -17 -8 -31 -14 -33 -12 -6 5 58 252 72 277 7 14 110
124 228 244 l213 219 38 -71 37 -72 30 18 c49 29 50 33 3 112 -25 41 -44 78
-42 81 2 8 258 279 401 427 55 56 98 102 95 101 -2 0 -89 -60 -194 -134z
m-629 -86 c38 -37 45 -55 13 -38 -15 8 -19 8 -15 0 11 -18 -9 -13 -37 9 -59
46 -117 12 -117 -69 0 -27 -3 -56 -6 -65 -4 -11 5 -18 38 -26 72 -18 171 -51
208 -70 27 -14 31 -20 19 -25 -9 -3 -72 12 -140 34 -67 23 -124 41 -125 41 -1
0 -5 -17 -9 -37 -19 -101 -99 -194 -198 -232 -68 -25 -175 -28 -255 -7 -29 7
-52 11 -52 9 0 -2 11 -25 24 -52 28 -54 38 -59 194 -87 81 -15 92 -19 79 -31
-12 -12 -26 -12 -103 2 -49 9 -97 19 -107 21 -29 9 31 -104 61 -114 l23 -7
-23 -21 -23 -21 -156 43 c-85 24 -168 48 -184 54 l-29 11 20 20 20 20 85 -25
c46 -13 113 -34 149 -45 35 -11 65 -19 66 -18 2 1 -13 27 -32 57 -37 58 -41
60 -176 84 -42 8 -47 16 -19 33 15 9 31 9 72 -2 29 -8 55 -12 57 -10 2 2 -9
27 -25 55 -24 44 -34 52 -77 65 -57 17 -67 18 -46 5 12 -8 12 -12 -6 -32 -19
-22 -148 -170 -187 -214 l-18 -21 188 -78 c103 -43 190 -79 191 -80 2 -2 -8
-11 -22 -20 -26 -17 -29 -16 -164 39 -75 32 -159 65 -185 74 l-49 16 -36 -40
c-21 -22 -119 -132 -218 -244 -244 -275 -378 -410 -437 -438 -84 -41 -189 -42
-256 -1 l-33 20 58 54 c64 59 75 63 95 39 11 -14 8 -21 -23 -49 l-36 -33 32
-6 c113 -21 188 37 503 391 15 17 111 125 213 239 102 115 224 251 272 304
l87 95 -27 12 c-40 18 -148 16 -177 -3 -31 -20 -93 -11 -74 12 19 23 78 56
117 65 43 9 109 -4 277 -55 135 -42 262 -56 332 -37 52 14 121 66 147 110 26
44 46 133 46 204 0 109 45 161 133 154 38 -3 55 -11 83 -38z m-1017 -10 c127
-72 197 -161 189 -244 -3 -33 -4 -34 -28 -22 -19 9 -26 23 -31 55 -7 57 -64
113 -169 167 -32 17 -32 16 -50 -40 -11 -34 -96 -230 -132 -302 -7 -14 -20
-23 -35 -23 -28 0 -29 10 -4 58 10 20 47 104 81 187 92 220 87 215 179 164z
m1090 -94 c35 -45 39 -70 14 -79 -10 -4 -15 -4 -11 -1 3 3 -5 18 -18 32 -14
15 -23 32 -20 40 3 7 0 15 -6 19 -7 4 -8 3 -4 -4 14 -23 -2 -12 -17 11 -15 23
-14 24 9 23 15 -1 34 -16 53 -41z m95 -267 c-354 -361 -804 -825 -825 -852
-35 -44 -191 -170 -240 -194 -79 -38 -133 -48 -185 -34 -105 28 -148 91 -147
217 1 64 7 97 32 165 45 121 73 175 94 178 15 3 17 -5 17 -60 1 -115 49 -178
136 -178 69 0 119 34 524 351 102 79 284 219 405 309 120 91 244 184 275 207
30 24 57 43 60 43 2 0 -63 -69 -146 -152z m-1220 117 c-4 -8 -10 -15 -15 -15
-4 0 -6 7 -3 15 4 8 10 15 15 15 4 0 6 -7 3 -15z m971 -95 c-35 -91 -47 -111
-74 -128 l-23 -16 27 54 c15 30 36 66 46 79 11 13 19 36 19 51 0 30 10 44 22
32 4 -4 -4 -37 -17 -72z m-1030 -138 c34 -6 40 -11 40 -32 0 -25 -1 -25 -96
-28 -90 -3 -97 -1 -122 22 -15 14 -27 29 -27 35 0 11 147 13 205 3z m-186
-117 c45 -60 80 -117 79 -125 -2 -8 -14 -16 -28 -17 -20 -2 -35 10 -80 68 -30
40 -63 81 -72 92 -10 11 -18 27 -18 36 0 16 29 65 35 59 2 -2 39 -52 84 -113z
m-119 -190 c44 -103 45 -130 4 -130 -14 0 -29 24 -60 95 l-41 95 20 28 c11 16
23 25 27 20 5 -4 27 -53 50 -108z m1922 -68 c9 -18 39 -58 67 -89 l51 -56 -37
-29 c-67 -52 -243 -148 -243 -133 0 5 8 10 18 11 10 0 12 3 5 6 -7 2 -13 11
-13 19 0 9 4 13 9 10 5 -4 11 -2 13 3 1 5 38 30 80 55 43 26 80 51 82 55 5 8
-64 100 -76 101 -4 0 -34 -17 -65 -37 -32 -21 -134 -77 -227 -124 l-169 -86
82 -32 c46 -17 87 -31 93 -31 5 0 22 -6 36 -14 15 -8 69 -32 120 -53 92 -37
93 -38 72 -55 -20 -16 -24 -16 -78 4 -31 11 -81 31 -111 44 -29 13 -55 24 -56
24 -1 0 -28 -56 -60 -124 -46 -97 -64 -126 -82 -131 -22 -5 -33 -25 -13 -25 6
0 10 5 10 10 0 6 5 10 11 10 11 0 -17 -45 -29 -45 -4 -1 -18 -7 -30 -14 -13
-7 -26 -10 -29 -8 -3 3 9 13 27 22 24 13 29 19 20 30 -6 7 -7 15 -3 17 7 3 67
138 80 182 5 15 3 17 -13 8 -50 -26 -395 -182 -404 -182 -6 0 -5 11 3 27 9 21
50 45 195 115 101 48 187 88 191 88 3 0 19 8 34 19 l28 18 -81 33 -81 33 -47
-21 c-26 -11 -75 -33 -109 -48 -35 -15 -63 -33 -63 -41 0 -32 -42 -129 -63
-145 -34 -26 -39 -8 -17 57 11 32 18 60 17 62 -6 6 -119 -48 -163 -78 -22 -15
-74 -67 -114 -116 -41 -48 -87 -100 -104 -115 -31 -29 -61 -37 -53 -15 2 6 10
11 16 9 7 -1 10 2 7 7 -3 5 14 33 39 62 47 55 57 77 28 59 -150 -88 -200 -129
-248 -196 -27 -39 -90 -126 -138 -194 -68 -93 -86 -125 -75 -131 7 -5 17 -9
22 -9 5 0 3 -7 -4 -15 -7 -9 -18 -14 -24 -12 -6 2 -16 -2 -23 -9 -7 -7 -22
-10 -34 -7 -15 4 -20 3 -15 -5 4 -7 4 -12 -1 -13 -28 -2 -47 -9 -61 -22 -25
-21 -170 -69 -183 -61 -7 4 -9 3 -6 -3 9 -15 -43 -27 -56 -14 -18 18 -50 14
-43 -5 5 -12 2 -15 -10 -10 -8 3 -27 6 -41 6 -31 0 -25 10 8 14 13 2 37 9 53
15 23 9 31 9 37 -1 6 -10 14 -9 38 5 16 9 38 17 49 17 11 0 44 12 72 26 43 21
54 24 61 13 8 -13 13 -5 10 14 -1 5 3 6 9 2 5 -3 10 -1 10 5 0 6 5 8 10 5 6
-3 10 -2 10 3 0 4 16 14 35 22 19 8 35 17 35 22 0 11 -17 10 -38 -3 -15 -9
-37 -1 -122 41 -93 47 -107 51 -134 42 -17 -6 -79 -28 -138 -49 l-107 -38 -66
-88 c-36 -49 -65 -90 -65 -93 0 -3 23 -2 50 2 l51 7 -12 -27 c-7 -15 -22 -28
-33 -31 -107 -21 -408 -21 -538 0 -192 31 -256 72 -301 194 -28 75 -33 107
-18 129 12 20 47 -28 55 -75 3 -21 18 -60 34 -88 22 -40 38 -55 85 -79 51 -26
78 -32 210 -44 100 -10 185 -12 249 -8 l97 8 61 81 c33 44 59 82 57 83 -1 2
-44 -8 -94 -21 -116 -30 -315 -64 -418 -72 -70 -5 -84 -3 -115 16 -19 11 -30
21 -24 21 117 0 463 61 629 111 340 101 572 214 980 477 256 166 503 299 785
425 178 79 376 181 474 245 44 29 83 52 86 52 4 0 13 -15 22 -33z m-2073 -113
c27 -115 27 -140 1 -147 -10 -3 -23 0 -28 7 -15 20 -54 185 -46 198 16 28 38
48 45 41 4 -5 16 -49 28 -99z m69 56 c11 -29 2 -47 -17 -36 -10 7 -20 53 -13
61 11 11 20 4 30 -25z m568 -46 c-57 -52 -76 -63 -76 -46 0 13 122 113 129
106 3 -3 -21 -30 -53 -60z m613 -53 c8 -5 11 -16 6 -30 -7 -24 -14 -25 -50 -9
-24 11 -24 12 -9 30 19 20 32 22 53 9z m-1375 -78 c13 28 26 20 26 -17 0 -25
-10 -45 -38 -76 -33 -38 -42 -42 -66 -36 l-29 7 20 22 c28 31 43 61 43 89 0
13 6 30 13 37 10 10 13 7 18 -16 5 -23 7 -25 13 -10z m2318 -21 c-7 -2 -12 -8
-12 -13 0 -6 5 -7 11 -3 8 4 9 -1 4 -17 -9 -28 -53 -99 -61 -99 -3 0 -2 6 2
13 6 9 4 9 -7 1 -8 -6 -22 -11 -31 -11 -15 0 -15 4 4 31 57 83 93 126 97 114
2 -6 -1 -14 -7 -16z m-1916 2 c-8 -20 -56 -206 -56 -216 0 -4 13 -14 30 -23
28 -14 68 -61 59 -69 -2 -2 -26 7 -54 19 l-50 23 -10 -31 c-5 -17 -16 -33 -24
-35 -11 -4 -13 4 -8 37 5 42 5 42 -39 64 -24 11 -44 24 -44 28 0 17 22 20 56
9 19 -7 37 -10 40 -8 2 3 13 39 24 81 10 42 29 90 41 107 24 32 45 41 35 14z
m877 -29 c-3 -35 -26 -75 -43 -75 -4 0 -1 27 7 60 17 67 39 76 36 15z m684
-42 c0 -10 -4 -24 -10 -30 -11 -14 -31 -18 -23 -4 3 4 -6 6 -21 3 -18 -3 -24
-1 -19 7 4 6 20 11 37 11 16 0 28 3 28 8 -2 10 0 22 4 22 2 0 4 -8 4 -17z
m-2091 -78 c43 -28 55 -40 52 -58 -2 -12 -10 -23 -19 -25 -13 -2 -78 30 -127
63 -6 5 22 55 30 55 5 0 34 -16 64 -35z m2284 -91 c0 -8 -19 -13 -24 -6 -3 5
1 9 9 9 8 0 15 -2 15 -3z m-36 -12 c6 -10 -48 -52 -66 -52 -7 0 -22 7 -32 15
-19 14 -19 15 8 15 15 0 25 4 21 10 -11 17 7 11 21 -7 13 -17 14 -17 7 1 -5
16 -3 18 11 13 10 -4 15 -3 11 3 -3 6 -2 10 4 10 5 0 12 -4 15 -8z m-87 -59
c2 -6 -5 -13 -17 -16 -11 -3 -17 -1 -14 4 3 6 -6 7 -23 4 -26 -5 -26 -5 -5 5
13 5 21 14 17 20 -4 6 2 7 16 1 13 -4 25 -13 26 -18z m-1706 -76 c112 -51 215
-97 228 -103 l24 -10 -26 -17 c-28 -18 -15 -22 -232 77 -38 18 -109 50 -157
71 -81 37 -86 41 -71 57 9 10 19 18 23 18 4 0 99 -42 211 -93z m1525 4 c-9
-14 -26 -14 -26 0 0 5 5 7 12 3 8 -5 9 -1 4 12 -5 14 -4 16 5 7 6 -6 8 -16 5
-22z m-2251 -26 c24 -19 28 -16 -149 -144 -131 -95 -159 -109 -246 -126 l-35
-7 25 25 c14 13 90 68 170 122 80 54 159 108 175 121 35 28 34 28 60 9z m465
6 c0 -16 -201 -162 -218 -159 -11 2 17 30 83 85 91 74 135 98 135 74z m1209
-4 c8 -10 7 -14 -4 -14 -8 0 -15 6 -15 14 0 7 2 13 4 13 2 0 9 -6 15 -13z
m-19 -28 c0 -9 -78 -38 -84 -31 -13 12 -4 22 32 41 34 18 51 15 52 -10z
m-1132 12 c18 -11 -64 -222 -84 -214 -19 7 -18 21 11 99 51 137 48 132 73 115z
m-416 -50 c-2 -10 4 -12 20 -7 98 28 103 13 10 -30 -60 -28 -71 -38 -109 -97
-23 -37 -38 -67 -34 -67 5 0 44 9 87 20 137 34 200 25 344 -49 l85 -44 -32
-13 c-30 -13 -37 -11 -115 26 -102 50 -154 52 -316 12 -124 -30 -114 -22 -181
-143 -24 -43 -45 -62 -65 -57 -11 2 -4 20 30 77 25 40 44 75 42 76 -2 2 -28
-1 -58 -6 -30 -6 -101 -11 -157 -12 -89 -2 -103 -4 -103 -19 0 -45 -11 -48
-46 -11 -39 41 -41 53 -16 81 18 22 79 37 84 22 6 -20 125 -23 229 -6 113 19
122 24 168 107 23 41 15 52 -15 22 -10 -10 -27 -19 -38 -19 -12 -1 -47 -11
-80 -23 -116 -43 -86 -15 55 52 114 53 148 74 161 98 18 30 56 38 50 10z
m1568 -1 c0 10 3 11 11 3 15 -15 -6 -52 -29 -50 -16 1 -17 5 -8 29 7 19 13 23
18 15 6 -9 8 -8 8 3z m-1010 -15 c0 -11 -43 -175 -50 -192 -11 -27 -44 -32
-36 -5 3 9 14 55 26 102 27 112 27 111 45 104 8 -3 15 -7 15 -9z m850 -11 c0
-8 -61 -34 -69 -30 -5 3 -16 -3 -26 -14 -10 -11 -22 -20 -27 -20 -5 0 -37 -16
-70 -35 -33 -20 -63 -33 -66 -30 -3 3 0 5 6 5 7 0 12 4 12 10 0 5 -8 6 -17 3
-19 -7 -15 0 25 49 14 17 47 14 36 -3 -8 -14 3 -11 45 11 21 10 41 17 43 14 3
-2 11 2 17 10 7 8 20 12 29 9 9 -3 14 -3 10 2 -12 13 11 33 32 28 11 -3 20 -7
20 -9z m379 -6 c-11 -20 -10 -21 2 -11 10 8 19 9 29 2 13 -9 13 -10 0 -6 -8 2
-21 -2 -28 -9 -8 -8 -35 -12 -72 -11 -32 1 -58 3 -56 5 3 2 121 48 134 51 1 1
-3 -9 -9 -21z m-134 -47 c3 -5 22 -7 43 -5 26 4 33 2 22 -4 -8 -6 -33 -13 -55
-16 -22 -3 -34 -3 -27 0 21 10 13 26 -10 19 -18 -5 -20 -4 -8 4 19 13 27 14
35 2z m-123 -75 c9 5 10 4 3 -4 -6 -6 -19 -13 -30 -15 -11 -2 -29 -8 -41 -14
-17 -10 -21 -9 -21 3 0 8 6 13 12 10 6 -2 17 5 24 16 9 15 15 17 26 8 8 -6 20
-8 27 -4z m-401 -39 c-6 -6 -17 -12 -25 -13 -12 -2 -13 2 -4 16 6 10 18 16 25
13 10 -4 11 -9 4 -16z m269 -16 c0 -5 -7 -12 -16 -15 -14 -5 -15 -4 -4 9 14
17 20 19 20 6z m-180 -66 c-7 -13 -17 -22 -22 -19 -5 3 -15 0 -23 -6 -18 -15
-19 -6 -4 21 10 19 49 41 58 33 2 -2 -2 -15 -9 -29z m-70 -9 c0 -3 -4 -8 -10
-11 -5 -3 -10 -1 -10 4 0 6 5 11 10 11 6 0 10 -2 10 -4z m-35 -37 c4 -6 14 -8
24 -4 11 4 13 3 6 -4 -6 -6 -22 -12 -35 -15 -14 -2 -26 -5 -27 -5 -2 -1 -5 -1
-8 -1 -3 0 -15 -9 -27 -20 -12 -11 -30 -19 -39 -18 -9 2 -23 -3 -33 -11 -21
-18 -31 -8 -16 16 14 20 106 72 132 73 9 0 20 -5 23 -11z m-166 -66 c-8 -10
-18 -21 -24 -25 -6 -5 -4 -8 4 -8 8 0 12 -3 9 -6 -4 -3 -10 -6 -15 -6 -4 0
-14 -5 -22 -11 -12 -10 -13 -9 -7 3 5 11 3 10 -6 -1 -11 -14 -17 -15 -31 -4
-12 8 -14 15 -8 20 6 3 11 1 11 -5 0 -6 5 -8 10 -5 6 4 8 10 5 15 -3 4 14 17
38 28 52 26 53 26 36 5z m-399 -63 c13 -9 13 -10 0 -11 -8 -1 -22 -3 -30 -4
-8 -1 -23 -3 -32 -4 -9 0 -23 -7 -31 -15 -11 -12 -76 -35 -172 -62 -19 -5 -19
-5 1 10 17 12 223 93 244 95 3 0 12 -4 20 -9z m50 -85 c-7 -8 -22 -15 -34 -15
-17 1 -16 3 9 15 39 18 40 18 25 0z m-160 -85 c0 -5 -2 -10 -4 -10 -3 0 -8 5
-11 10 -3 6 -1 10 4 10 6 0 11 -4 11 -10z m-65 -20 c-3 -5 -15 -10 -26 -10
-10 0 -19 5 -19 10 0 6 12 10 26 10 14 0 23 -4 19 -10z m3278 -218 c-4 -37 -2
-51 11 -61 9 -7 16 -22 16 -33 0 -22 -49 -118 -80 -158 -19 -24 -19 -23 1 35
27 78 22 140 -16 172 -30 27 -58 29 -99 8 -15 -8 -33 -12 -40 -8 -6 3 -8 3 -4
-2 4 -4 -3 -16 -17 -26 -13 -11 -62 -94 -110 -186 -108 -207 -174 -312 -185
-293 -10 16 -2 42 11 34 5 -3 6 2 3 10 -3 9 -2 16 3 16 15 0 69 100 138 255
94 215 74 194 222 242 70 23 133 42 140 42 9 1 10 -13 6 -47z m-2682 28 c484
0 487 0 482 -20 -6 -24 -51 -62 -64 -54 -5 2 -11 -7 -15 -21 -3 -14 -11 -25
-17 -25 -6 0 -19 -8 -30 -17 -19 -17 -20 -17 -14 -1 6 16 -9 36 -19 25 -3 -2
-27 -92 -53 -198 -27 -107 -57 -214 -66 -239 -9 -25 -22 -64 -28 -88 -10 -42
-12 -43 -78 -63 -67 -20 -125 -55 -124 -75 0 -19 70 -85 92 -87 13 0 19 -6 16
-14 -3 -8 -13 -11 -23 -8 -31 10 -186 -13 -312 -46 -68 -17 -133 -34 -145 -36
-22 -5 -23 -3 -23 70 l0 75 77 11 c69 10 107 21 74 21 -7 0 -9 5 -6 10 8 12 0
13 -23 1 -9 -5 -44 -13 -77 -18 l-60 -8 0 -85 c0 -47 -4 -91 -9 -98 -17 -27
-27 7 -33 110 l-6 105 63 6 c35 4 85 7 111 7 36 0 54 6 72 23 45 41 56 127 18
142 -9 4 -69 10 -134 14 -132 8 -141 13 -132 74 3 22 -1 51 -9 72 -8 19 -13
35 -10 35 3 0 69 -18 147 -41 78 -22 166 -42 195 -44 30 -2 58 -7 63 -12 5 -5
10 -62 11 -127 4 -159 22 -168 32 -16 4 79 11 119 24 138 22 34 126 139 175
176 20 16 37 32 37 37 0 13 -50 0 -80 -21 -14 -9 -33 -20 -43 -23 -15 -6 -16
-3 -7 12 11 22 2 25 -105 36 -210 21 -466 101 -494 154 -7 12 -10 21 -8 21 2
0 34 -13 69 -30 155 -69 415 -142 503 -139 19 1 23 3 10 5 -189 40 -532 168
-627 235 -14 11 -28 19 -31 19 -12 0 -13 -39 -1 -61 19 -35 17 -43 -8 -27 -13
8 -45 22 -72 31 l-48 16 4 -39 c3 -33 0 -40 -14 -40 -9 0 -23 -6 -30 -13 -7
-7 -23 -16 -35 -19 -22 -6 -23 -4 -23 57 0 34 3 77 7 95 l6 33 180 -6 c99 -4
400 -7 668 -7z m533 -135 c7 -30 7 -29 -18 7 -15 22 -23 45 -19 54 5 14 8 13
18 -7 7 -13 15 -37 19 -54z m1086 18 c0 -20 -4 -24 -19 -20 -10 2 -27 0 -37
-6 -17 -10 -18 -9 -4 9 45 60 60 65 60 17z m-1283 -115 c-3 -8 -6 -5 -6 6 -1
11 2 17 5 13 3 -3 4 -12 1 -19z m-1169 -15 c14 -14 17 -38 17 -132 1 -184 5
-295 10 -289 3 3 6 83 6 179 0 95 2 176 5 181 11 17 34 -7 40 -40 3 -21 15
-81 25 -135 22 -113 24 -147 8 -147 -21 0 -89 -55 -84 -68 3 -7 1 -11 -3 -8
-5 3 -6 -73 -4 -167 2 -95 2 -169 -2 -166 -29 27 -70 809 -43 809 5 0 16 -8
25 -17z m1551 -266 c23 -44 40 -81 37 -84 -15 -15 -36 13 -69 93 -59 140 -47
137 32 -9z m-230 -26 c18 -46 30 -85 28 -87 -6 -7 -119 -26 -123 -21 -3 2 4
38 14 78 11 41 23 87 26 103 9 38 17 27 55 -73z m1235 -150 c41 -23 67 -61 73
-109 6 -43 -13 -142 -27 -142 -5 0 -4 15 1 32 13 48 11 125 -5 156 -16 30 -82
72 -114 72 -12 0 -24 5 -27 11 -10 15 63 1 99 -20z m-787 -175 c-3 -10 -57 87
-57 103 0 6 10 15 23 20 21 8 22 5 29 -53 4 -33 6 -65 5 -70z m-44 19 c46 -70
57 -96 62 -143 3 -31 12 -82 20 -113 8 -30 15 -60 14 -65 -1 -19 -179 374
-179 395 0 32 34 1 83 -74z m-1588 33 c3 -18 9 -82 14 -143 9 -120 7 -125 -52
-167 -21 -15 -32 -17 -40 -9 -6 6 -12 73 -14 173 -4 176 -3 178 54 178 28 0
33 -4 38 -32z m1410 -316 c-5 -6 -50 90 -59 128 -3 14 10 -8 29 -49 20 -40 33
-76 30 -79z m-3115 -27 c0 -3 -9 0 -20 7 -11 7 -20 19 -20 27 0 11 6 9 20 -7
11 -12 20 -24 20 -27z m3334 -71 c27 -27 17 -36 -14 -14 -16 12 -30 23 -30 26
0 10 30 3 44 -12z"/>
<path d="M5920 3919 c-19 -17 -80 -65 -135 -107 -55 -42 -102 -79 -105 -82
-27 -29 -310 -243 -364 -275 -84 -49 -181 -51 -247 -4 -26 18 -26 18 -24 -5 2
-12 -5 -40 -15 -61 -17 -36 -18 -37 -22 -15 -4 25 -4 25 -17 -5 -10 -23 -14
-26 -21 -15 -17 26 -11 -48 5 -81 39 -75 138 -90 246 -38 54 27 101 69 309
278 411 414 488 495 390 410z"/>
<path d="M5058 2846 c-25 -17 -107 -63 -182 -101 -75 -39 -136 -72 -136 -75 0
-3 20 -13 44 -23 25 -10 56 -29 70 -42 14 -13 26 -21 26 -18 0 3 7 0 15 -7 12
-10 15 -10 15 0 0 7 7 10 14 7 9 -4 13 -1 10 7 -4 11 48 93 136 211 65 87 63
92 -12 41z"/>
<path d="M6520 4640 c-9 -6 -10 -10 -3 -10 6 0 15 5 18 10 8 12 4 12 -15 0z"/>
<path d="M6719 4423 c-13 -15 -12 -15 9 -4 23 12 28 21 13 21 -5 0 -15 -7 -22
-17z"/>
<path d="M6733 4072 c-10 -17 -5 -19 50 -13 4 1 7 6 7 13 0 6 -3 8 -6 5 -4 -3
-14 -2 -23 3 -12 6 -20 4 -28 -8z"/>
<path d="M5990 3685 c0 -8 4 -15 10 -15 5 0 7 7 4 15 -4 8 -8 15 -10 15 -2 0
-4 -7 -4 -15z"/>
<path d="M6353 2860 c-23 -10 -77 -30 -121 -45 -47 -16 -79 -32 -79 -40 0 -14
45 0 132 42 22 11 60 29 85 41 55 26 41 28 -17 2z"/>
<path d="M5975 2729 c-77 -27 -171 -60 -210 -73 -38 -13 -126 -44 -195 -68
l-126 -45 131 4 130 4 115 51 c63 28 144 66 180 84 36 18 82 40 102 49 24 11
35 22 31 31 -7 18 5 21 -158 -37z"/>
<path d="M3400 2091 c0 -5 5 -13 10 -16 6 -3 10 -2 10 4 0 5 -4 13 -10 16 -5
3 -10 2 -10 -4z"/>
<path d="M3690 2007 c0 -12 20 -55 45 -95 25 -40 45 -74 45 -76 0 -12 242
-367 247 -363 6 7 -45 100 -171 312 -52 88 -107 179 -120 203 -28 46 -46 54
-46 19z"/>
<path d="M2351 1750 c0 -19 6 -46 14 -60 18 -32 18 -18 1 45 -14 48 -14 48
-15 15z"/>
<path d="M3402 1680 c0 -14 2 -19 5 -12 2 6 2 18 0 25 -3 6 -5 1 -5 -13z"/>
<path d="M6900 1665 c0 -27 15 -49 123 -187 37 -47 67 -95 67 -106 0 -10 -15
-52 -34 -93 -39 -86 -58 -144 -30 -94 9 17 36 62 60 101 24 39 44 79 44 89 0
10 -17 39 -38 64 -87 104 -140 179 -151 214 -14 42 -41 50 -41 12z"/>
<path d="M3441 1414 c0 -11 3 -14 6 -6 3 7 2 16 -1 19 -3 4 -6 -2 -5 -13z"/>
<path d="M3690 1402 c0 -44 42 -339 55 -387 l13 -50 1 55 c0 30 -13 131 -29
224 -28 158 -40 207 -40 158z"/>
<path d="M2790 1378 c0 -18 51 -98 78 -122 31 -27 27 -10 -8 34 -16 21 -30 41
-30 45 0 4 -9 18 -20 32 -12 16 -20 20 -20 11z"/>
<path d="M3800 1309 c0 -8 28 -61 62 -119 52 -90 150 -263 221 -392 11 -21 22
-36 24 -34 17 17 -79 222 -172 366 -23 36 -57 88 -74 117 -37 59 -61 84 -61
62z"/>
<path d="M7635 1271 c-3 -5 -1 -12 5 -16 12 -7 30 2 30 16 0 12 -27 12 -35 0z"/>
<path d="M4110 741 c0 -6 4 -13 10 -16 6 -3 7 1 4 9 -7 18 -14 21 -14 7z"/>
<path d="M6948 708 c2 -10 6 -18 7 -18 1 0 5 8 7 18 3 11 0 19 -7 19 -7 0 -10
-8 -7 -19z"/>
<path d="M7028 495 c-2 -19 0 -35 4 -35 4 0 8 16 8 35 0 19 -2 35 -4 35 -2 0
-6 -16 -8 -35z"/>
</g>
</svg>
